/* XPM */
static char * close_prelight_xpm[] = {
"24 24 40 1",
" 	c None",
".	c #373737",
"+	c #161616",
"@	c #383A3C",
"#	c #616F83",
"$	c #7D92B2",
"%	c #8BA4C9",
"&	c #7C91B1",
"*	c #616E82",
"=	c #4F5865",
"-	c #89A3C8",
";	c #8FA9D0",
">	c #4F5864",
",	c #8EA8CF",
"'	c #8AA4C8",
")	c #8AA3C8",
"!	c #313132",
"~	c #55606E",
"{	c #8EA9CE",
"]	c #576170",
"^	c #303031",
"/	c #606D81",
"(	c #7E93B3",
"_	c #5F6B7F",
":	c #535D6B",
"<	c #545E6C",
"[	c #5B6879",
"}	c #5D697C",
"|	c #5A6778",
"1	c #525C6A",
"2	c #8EA7CE",
"3	c #555F6D",
"4	c #5F6C80",
"5	c #545E6D",
"6	c #627084",
"7	c #5F6D80",
"8	c #89A3C7",
"9	c #37393B",
"0	c #4E5663",
"a	c #7C92B0",
"........................",
"++++++++++++++++++++++++",
"++++++++++++++++++++++++",
"++++++++++++++++++++++++",
"++++++++++++++++++++++++",
"++++++++@#$%%&*@++++++++",
"+++++++=-;;;;;;->+++++++",
"++++++=,;;;;;;;;,>++++++",
"+++++@-;;';;;;);;)@+++++",
"+++++#;;;!~{{]^;;;/+++++",
"+++++(;;;_+:<+[;;;&+++++",
"+++++';;;;}++|;;;;-+++++",
"+++++-;;;,1++=2;;;)+++++",
"+++++$;;;3+44+5;;;&+++++",
"+++++*;;;@6;;6@;;;7+++++",
"+++++@-;;;;;;;;;;89+++++",
"++++++>,;;;;;;;;,0++++++",
"+++++++>);;;;;;80+++++++",
"++++++++@/a''a79++++++++",
"++++++++++++++++++++++++",
"++++++++++++++++++++++++",
"++++++++++++++++++++++++",
"++++++++++++++++++++++++",
"++++++++++++++++++++++++"};
