/* XPM */
static char * close_active_xpm[] = {
"24 24 41 1",
" 	c None",
".	c #373737",
"+	c #161616",
"@	c #35373C",
"#	c #546479",
"$	c #6981A3",
"%	c #738FB8",
"&	c #6880A3",
"*	c #546379",
"=	c #47515E",
"-	c #728EB7",
";	c #7694BE",
">	c #47505F",
",	c #7693BD",
"'	c #738FB7",
")	c #728FB7",
"!	c #36383A",
"~	c #303132",
"{	c #4C5767",
"]	c #7593BD",
"^	c #4C596A",
"/	c #303030",
"(	c #536378",
"_	c #6982A4",
":	c #526176",
"<	c #4A5564",
"[	c #4A5665",
"}	c #4F5D71",
"|	c #515F73",
"1	c #4F5C70",
"2	c #495464",
"3	c #47515F",
"4	c #7593BC",
"5	c #4B5766",
"6	c #536277",
"7	c #4B5666",
"8	c #55657B",
"9	c #728EB6",
"0	c #353739",
"a	c #46505D",
"b	c #6880A2",
"........................",
"++++++++++++++++++++++++",
"++++++++++++++++++++++++",
"++++++++++++++++++++++++",
"++++++++++++++++++++++++",
"++++++++@#$%%&*@++++++++",
"+++++++=-;;;;;;->+++++++",
"++++++=,;;;;;;;;,>++++++",
"+++++@-;;';;;;);;)!+++++",
"+++++#;;;~{]]^/;;;(+++++",
"+++++_;;;:+<[+};;;&+++++",
"+++++);;;;|++1;;;;-+++++",
"+++++-;;;,2++34;;;)+++++",
"+++++$;;;5+66+7;;;&+++++",
"+++++*;;;@8;;8@;;;6+++++",
"+++++@-;;;;;;;;;;90+++++",
"++++++>,;;;;;;;;,a++++++",
"+++++++>);;;;;;9a+++++++",
"++++++++!(b))b60++++++++",
"++++++++++++++++++++++++",
"++++++++++++++++++++++++",
"++++++++++++++++++++++++",
"++++++++++++++++++++++++",
"++++++++++++++++++++++++"};
