/* XPM */
static char * close_pressed__xpm[] = {
"24 24 35 1",
" 	c None",
".	c #373737",
"+	c #161616",
"@	c #31363B",
"#	c #395275",
"$	c #3E669C",
"%	c #4170AF",
"&	c #3E649C",
"*	c #385174",
"=	c #35445C",
"-	c #406FAE",
";	c #4172B5",
">	c #35465C",
",	c #4172B4",
"'	c #416EAF",
")	c #303032",
"!	c #374965",
"~	c #4071B4",
"{	c #364A66",
"]	c #303030",
"^	c #395273",
"/	c #3F659D",
"(	c #385172",
"_	c #354761",
":	c #364862",
"<	c #374E6D",
"[	c #394E6F",
"}	c #374C6D",
"|	c #4170B4",
"1	c #364A64",
"2	c #395073",
"3	c #395377",
"4	c #30353A",
"5	c #34455B",
"6	c #3E649A",
"........................",
"++++++++++++++++++++++++",
"++++++++++++++++++++++++",
"++++++++++++++++++++++++",
"++++++++++++++++++++++++",
"++++++++@#$%%&*@++++++++",
"+++++++=-;;;;;;->+++++++",
"++++++=,;;;;;;;;,>++++++",
"+++++@-;;%;;;;';;'@+++++",
"+++++#;;;)!~~{];;;^+++++",
"+++++/;;;(+_:+<;;;&+++++",
"+++++';;;;[++};;;;-+++++",
"+++++-;;;,_++=|;;;'+++++",
"+++++$;;;1+22+:;;;&+++++",
"+++++*;;;@3;;3@;;;2+++++",
"+++++@-;;;;;;;;;;-4+++++",
"++++++>,;;;;;;;;,5++++++",
"+++++++>';;;;;;-5+++++++",
"++++++++@^6''624++++++++",
"++++++++++++++++++++++++",
"++++++++++++++++++++++++",
"++++++++++++++++++++++++",
"++++++++++++++++++++++++",
"++++++++++++++++++++++++"};
