/* XPM */
static char *hide_inactive[] = {
/* columns rows colors chars-per-pixel */
"24 24 3 1 ",
"  c #161616",
". c #373737",
"X c gray40",
/* pixels */
"........................",
"                        ",
"                        ",
"                        ",
"                        ",
"                        ",
"                        ",
"                        ",
"                        ",
"                        ",
"                        ",
"         XXXXXX         ",
"         XXXXXX         ",
"                        ",
"                        ",
"                        ",
"                        ",
"                        ",
"                        ",
"                        ",
"                        ",
"                        ",
"                        ",
"                        "
};
