/* XPM */
static char *hide_active[] = {
/* columns rows colors chars-per-pixel */
"24 24 3 1 ",
"  c #161616",
". c #373737",
"X c #909090",
/* pixels */
"........................",
"                        ",
"                        ",
"                        ",
"                        ",
"                        ",
"                        ",
"                        ",
"                        ",
"                        ",
"                        ",
"         XXXXXX         ",
"         XXXXXX         ",
"                        ",
"                        ",
"                        ",
"                        ",
"                        ",
"                        ",
"                        ",
"                        ",
"                        ",
"                        ",
"                        "
};
